# xmcd
#
# Track frame offsets:
# 150
# 31065
# 55439
# 85029
# 110750
# 127415
# 151846
# 176022
# 200681
# 220916
# 240702
# 264177
# 291357
# 307941
#
# Disc length: 4292 seconds
#
#
# Revision: 0
# Processed by: cddbd v1.5.1PL0 Copyright (c) Steve Scherf et al.
# Submitted via: FreeRIP 2.70 
#
DISCID=ca10c20e
DTITLE=Dzem - The Singles
DYEAR=1900
DGENRE=
TTITLE0=autsajder
TTITLE1=whisky
TTITLE2=list do M.
TTITLE3=sen o victorii
TTITLE4=Boze daj dom
TTITLE5=naiwne pytania
TTITLE6=czerwony jak cegla
TTITLE7=skazany na bluesa
TTITLE8=jak malowany ptak
TTITLE9=dzien w ktorym peklo niebo
TTITLE10=mala aleja roz
TTITLE11=Paw
TTITLE12=wokol sami lunatycy
TTITLE13=czlowieku co sie z Toba dzieje
EXTD=
EXTT0=
EXTT1=
EXTT2=
EXTT3=
EXTT4=
EXTT5=
EXTT6=
EXTT7=
EXTT8=
EXTT9=
EXTT10=
EXTT11=
EXTT12=
EXTT13=
PLAYORDER=
